<svg height="512" viewBox="0 0 60 60" width="512" xmlns="http://www.w3.org/2000/svg"><g id="038---Therapy"><path id="Shape" d="m3 60h5c.84849384-.0026614 1.6557601-.3662948 2.22-1h25.08c1.467221.00049 2.906212-.4032856 4.159-1.167l18.741-11.409c1.6276173-.9901832 2.2517913-3.0449436 1.4499321-4.7731283-.8018593-1.7281847-2.7738821-2.5783375-4.5809321-1.9748717-20.848 6.951-18.513 6.324-20.03 6.324 1.212-3.362-1.819-7-5.607-7h-5.232c-1.8447784-.0022216-3.634258-.6300907-5.076-1.781-1.7965359-1.4333058-4.0257628-2.2155092-6.324-2.219h-1.984c-.4222546-1.1943509-1.54921457-1.9947486-2.816-2h-5c-1.65685425 0-3 1.3431458-3 3v21c0 1.6568542 1.34314575 3 3 3zm14.875-21.219c1.7968041 1.4335191 4.0264197 2.2157352 6.325 2.219h5.231c2.653 0 4.956 2.873 3.37 5h-6.076c-1.9746028-.0018907-3.9052624.5828413-5.547 1.68l-.733.488c-.4595009.306518-.583518.9274991-.277 1.387s.9274991.583518 1.387.277c1.4719438-1.1680824 3.2909946-1.8126668 5.17-1.832 9.508 0 9.427.09 10.47-.256l18.511-6.171c.5878495-.1965133 1.2358423-.0658653 1.7016196.3430797.4657774.4089451.6791755 1.0345846.5603804 1.6429203-.0897095.4817459-.3807549.9023064-.8 1.156l-18.748 11.41c-.9400676.5722941-2.0194331.8750007-3.12.875h-24.3v-20c2.272 0 4.43-.175 6.875 1.781zm-15.875-2.781c0-.5522847.44771525-1 1-1h5c.55228475 0 1 .4477153 1 1v21c0 .5522847-.44771525 1-1 1h-5c-.55228475 0-1-.4477153-1-1z"/><path id="Shape" d="m57.7.017c-.532.031-13.21.85-18.928 9.083-1.9305041 2.9517445-3.0170276 6.3752272-3.142 9.9-1.1963107-2.4756898-2.9869073-4.6167101-5.212-6.232-7.372-5.13-18.257-1.858-18.718-1.718-.4382058.1369449-.7268685.554681-.7 1.013.027.48.76 11.822 8.133 16.944 3.1180141 1.9940108 6.7680569 2.9941371 10.467 2.868 2.7917271-.0107947 5.5689562-.4020627 8.255-1.163h.024c.537-.031 13.215-.85 18.932-9.08s2.063-20.4 1.905-20.91c-.1328328-.44316833-.5543704-.73567226-1.016-.705zm-37.429 27.347c-5.511-3.829-6.893-12.015-7.2-14.61 2.54-.619 10.694-2.179 16.2 1.649 4.106 2.853 6.186 8.346 7 13.258l-5.932-4.122.067-3.472c.006788-.3572656-.1775385-.691014-.4835455-.8755254-.3060071-.1845114-.6872049-.1917542-1-.019s-.5096665.4992598-.5164545.8565254l-.041 2.138-2.589-1.8.066-3.473c.0050857-.2654004-.0955592-.521933-.2797578-.713072-.1841987-.1911389-.4368352-.3011986-.7022422-.305928-.2661373-.0086446-.5244566.0907198-.7161955.2754898s-.3005946.4392353-.3018045.7055102l-.032 2.144-4.855-3.373c-.2930691-.213409-.6786881-.2514867-1.0078361-.0995181-.3291481.1519687-.5502677.4701793-.5779081.8316609s.1425279.7096118.4447442.9098572l4.855 3.373-1.99.784c-.513901.2026885-.7661885.783599-.5635 1.2975s.783599.7661885 1.2975.5635l3.23-1.274 2.589 1.8-1.99.784c-.5139009.2029647-.7659646.784099-.563 1.298.2029647.5139009.784099.7659646 1.298.563l3.229-1.274 5.933 4.116c-3.381.657-10.106 1.372-14.868-1.936zm34.9-6.874c-3.832 5.516-11.511 7.372-15.255 7.964l4.832-6.954c.969.019 4.086.076 3.983.076.5522847.0055228 1.0044771-.4377153 1.01-.99.0055228-.5522847-.4377153-1.0044771-.99-1.01l-2.631-.05 2.189-3.15c.969.018 4.085.076 3.982.076.5522847.0055228 1.0044771-.4377153 1.01-.99.0055228-.5522847-.4377153-1.0044771-.99-1.01l-2.631-.052 3.92-5.639c.3153546-.45370192.2032019-1.07714541-.2505-1.3925s-1.0771454-.20320192-1.3925.2505l-3.918 5.64-.965-2.447c-.1309378-.3324357-.4292817-.5697644-.7826483-.6225867-.3533667-.0528223-.7080713.0868867-.9305001.3665-.2224287.2796133-.2787895.6566511-.1478516.9890867l1.454 3.688-2.189 3.15-.964-2.447c-.2024124-.5141771-.7833229-.7669123-1.2975-.5644999-.5141771.2024123-.7669123.7833228-.5645 1.2974999l1.454 3.689-4.832 6.954c-.75-3.715-1.69-11.558 2.142-17.074 4.383-6.308 13.8-7.829 16.6-8.148.684 2.739 2.546 12.08-1.845 18.4z"/></g></svg>