<svg id="_x31_" enable-background="new 0 0 24 24" height="512" viewBox="0 0 24 24" width="512" xmlns="http://www.w3.org/2000/svg"><g><path d="m5 6c-1.654 0-3-1.346-3-3s1.346-3 3-3 3 1.346 3 3-1.346 3-3 3zm0-5c-1.103 0-2 .897-2 2s.897 2 2 2 2-.897 2-2-.897-2-2-2z"/></g><g><path d="m6.5 24h-3c-.827 0-1.5-.673-1.5-1.5v-5.382c0-.191-.105-.362-.276-.447l-.895-.447c-.512-.256-.829-.77-.829-1.342v-4.382c0-1.93 1.57-3.5 3.5-3.5h3c1.93 0 3.5 1.57 3.5 3.5v4.382c0 .572-.317 1.086-.829 1.342l-.895.447c-.171.085-.276.256-.276.447v5.382c0 .827-.673 1.5-1.5 1.5zm-3-16c-1.379 0-2.5 1.122-2.5 2.5v4.382c0 .191.105.362.276.447l.895.447c.512.256.829.77.829 1.342v5.382c0 .276.225.5.5.5h3c.275 0 .5-.224.5-.5v-5.382c0-.572.317-1.086.829-1.342l.895-.447c.171-.085.276-.256.276-.447v-4.382c0-1.378-1.121-2.5-2.5-2.5z"/></g><g><path d="m22.5 24h-9c-.827 0-1.5-.673-1.5-1.5v-5c0-.827.673-1.5 1.5-1.5h9c.827 0 1.5.673 1.5 1.5v5c0 .827-.673 1.5-1.5 1.5zm-9-7c-.275 0-.5.224-.5.5v5c0 .276.225.5.5.5h9c.275 0 .5-.224.5-.5v-5c0-.276-.225-.5-.5-.5z"/></g><g><path d="m20 17c-.276 0-.5-.224-.5-.5v-1c0-.276-.225-.5-.5-.5h-2c-.275 0-.5.224-.5.5v1c0 .276-.224.5-.5.5s-.5-.224-.5-.5v-1c0-.827.673-1.5 1.5-1.5h2c.827 0 1.5.673 1.5 1.5v1c0 .276-.224.5-.5.5z"/></g><g><path d="m23.5 20h-11c-.276 0-.5-.224-.5-.5s.224-.5.5-.5h11c.276 0 .5.224.5.5s-.224.5-.5.5z"/></g><g><path d="m18 21c-.276 0-.5-.224-.5-.5v-2c0-.276.224-.5.5-.5s.5.224.5.5v2c0 .276-.224.5-.5.5z"/></g></svg>