<svg id="Layer_1" data-name="Layer 1" xmlns="http://www.w3.org/2000/svg" viewBox="0 0 512 512"><title>angry</title><g id="angry"><path d="M512,256c0,141.4-114.61,256-256,256S0,397.4,0,256,114.63,0,256,0,512,114.6,512,256Z" fill="#ffd764"/><path d="M122.19,416.76a10.24,10.24,0,0,1-7.77-16.91,186.73,186.73,0,0,1,283.14-.37,10.24,10.24,0,1,1-15.5,13.38,166.26,166.26,0,0,0-252.1.33,10.22,10.22,0,0,1-7.77,3.57Z" fill="#fa645a"/><path d="M214.62,157.24a10.25,10.25,0,0,1-4.57-1.08L127,114.64a10.24,10.24,0,1,1,9.16-18.32l83.05,41.52a10.24,10.24,0,0,1-4.59,19.4Z" fill="#4a4a4a"/><path d="M297.69,157.24a10.24,10.24,0,0,1-4.59-19.4l83-41.52a10.24,10.24,0,1,1,9.16,18.32l-83,41.52a10.25,10.25,0,0,1-4.57,1.08Z" fill="#4a4a4a"/><path d="M224.17,219.65a61.44,61.44,0,1,1-61.44-61.43A61.44,61.44,0,0,1,224.17,219.65Z" fill="#fff"/><path d="M193.45,219.66a30.72,30.72,0,1,1-30.72-30.71A30.72,30.72,0,0,1,193.45,219.66Z" fill="#00b4dc"/><path d="M288.14,219.65a61.44,61.44,0,1,0,61.42-61.42A61.45,61.45,0,0,0,288.14,219.65Z" fill="#fff"/><path d="M318.86,219.66a30.72,30.72,0,1,0,30.71-30.71A30.73,30.73,0,0,0,318.86,219.66Z" fill="#00b4dc"/></g></svg>