<svg id="Layer_1" data-name="Layer 1" xmlns="http://www.w3.org/2000/svg" viewBox="0 0 512 512"><title>boo</title><g id="boo"><path d="M512,256c0,141.41-114.64,256-256,256S0,397.4,0,256,114.61,0,256,0,512,114.61,512,256Z" fill="#ffd764"/><path d="M215.5,208.8a64.23,64.23,0,1,1-64.22-64.22A64.21,64.21,0,0,1,215.5,208.8Z" fill="#fff"/><path d="M296.5,208.8a64.23,64.23,0,1,0,64.22-64.22A64.22,64.22,0,0,0,296.5,208.8Z" fill="#fff"/><path d="M199.2,230.22a25.13,25.13,0,1,1-25.12-25.13A25.11,25.11,0,0,1,199.2,230.22Z" fill="#00b4dc"/><path d="M312.81,230.21a25.13,25.13,0,1,0,25.12-25.12A25.11,25.11,0,0,0,312.81,230.21Z" fill="#00b4dc"/><path d="M327.05,363.66H184.95a76.8,76.8,0,1,0,142.11,0Z" fill="#fa645a"/><path d="M327,363.66a72.84,72.84,0,0,0-4.74-9.52c-.25-.41-.5-.81-.73-1.21a77.88,77.88,0,0,0-13-16.08l-1.28-1.16a79.07,79.07,0,0,0-7.94-6.33s0,0-.08-.05a74.8,74.8,0,0,0-8.77-5.1c-.65-.33-1.31-.64-2-1a77.56,77.56,0,0,0-9.25-3.69l-.25-.08a75,75,0,0,0-10-2.33c-.81-.14-1.64-.26-2.47-.37a68.73,68.73,0,0,0-21,0c-.83.11-1.67.23-2.49.37a74.28,74.28,0,0,0-10,2.33l-.26.08a78.08,78.08,0,0,0-9.24,3.69c-.66.32-1.32.63-2,1a76.13,76.13,0,0,0-8.8,5.1s0,.05-.07.05a75.6,75.6,0,0,0-7.92,6.33l-1.28,1.16a76.63,76.63,0,0,0-13,16.08c-.25.4-.51.8-.75,1.21a78.08,78.08,0,0,0-4.74,9.52H327Z" fill="#fff"/></g></svg>