<svg id="Layer_1" data-name="Layer 1" xmlns="http://www.w3.org/2000/svg" viewBox="0 0 512 512"><title>desperate</title><g id="desperate"><path d="M512,256c0,141.4-114.62,256-256,256S0,397.4,0,256,114.62,0,256,0,512,114.62,512,256" fill="#ffd764"/><path d="M256,282.34a134.1,134.1,0,0,0-134.1,134.1H390.1A134.1,134.1,0,0,0,256,282.34" fill="#ae453e"/><path d="M121.9,416.44c0-33.66,60-61,134.1-61s134.1,27.3,134.1,61" fill="#fa645a"/><path d="M123.75,253.64A10.24,10.24,0,0,1,118,234.92l59.83-40.51L118,153.91a10.24,10.24,0,0,1,11.48-17l72.35,49a10.24,10.24,0,0,1,0,17l-72.35,49a10.19,10.19,0,0,1-5.73,1.76Z" fill="#4a4a4a"/><path d="M388.26,253.64a10.19,10.19,0,0,1-5.73-1.76l-72.36-49a10.24,10.24,0,0,1,0-17l72.36-49a10.24,10.24,0,0,1,11.48,17l-59.83,40.5L394,234.92a10.24,10.24,0,0,1-5.75,18.72Z" fill="#4a4a4a"/></g></svg>