<svg id="Layer_1" data-name="Layer 1" xmlns="http://www.w3.org/2000/svg" viewBox="0 0 512 512"><title>shocked</title><g id="shocked"><path d="M512,256c0,141.41-114.63,256-256,256S0,397.4,0,256,114.61,0,256,0,512,114.61,512,256Z" fill="#ffd764"/><path d="M333.91,367.31A77.92,77.92,0,1,1,256,289.38,77.9,77.9,0,0,1,333.91,367.31Z" fill="#fa645a"/><path d="M217.25,178.08a61.44,61.44,0,1,1-61.43-61.43A61.42,61.42,0,0,1,217.25,178.08Z" fill="#fff"/><path d="M294.73,178.08a61.44,61.44,0,1,0,61.43-61.43A61.42,61.42,0,0,0,294.73,178.08Z" fill="#fff"/><path d="M186.54,178.09a30.72,30.72,0,1,1-30.72-30.72A30.71,30.71,0,0,1,186.54,178.09Z" fill="#00b4dc"/><path d="M325.45,178.08a30.72,30.72,0,1,0,30.71-30.71A30.71,30.71,0,0,0,325.45,178.08Z" fill="#00b4dc"/></g></svg>