<svg id="Layer_1" data-name="Layer 1" xmlns="http://www.w3.org/2000/svg" viewBox="0 0 512 512"><title>smiling-star-eyes</title><g id="smiling-star"><path d="M512,256c0,141.4-114.61,256-256,256S0,397.4,0,256,114.61,0,256,0,512,114.62,512,256Z" fill="#ffd764"/><path d="M409.29,345.94H102.71a158.46,158.46,0,0,1-6.62-15.16C118.7,391.48,181.67,442,256,442S393.29,391.5,415.9,330.8A160.3,160.3,0,0,1,409.29,345.94Z" fill="#fa645a"/><path d="M409.29,345.94a160.3,160.3,0,0,0,6.61-15.14.66.66,0,0,0,.05-.12,151.62,151.62,0,0,0,4.59-14.62c.11-.44.27-.88.38-1.32a136.09,136.09,0,0,0,2.58-13.5c.12-.84.33-1.68.44-2.52a126.1,126.1,0,0,0,1-15.78H87a124.37,124.37,0,0,0,1,15.78c.1.84.31,1.66.43,2.48a136.92,136.92,0,0,0,2.58,13.54c.11.44.27.88.38,1.32A151.9,151.9,0,0,0,96,330.68s0,.06,0,.1a158.46,158.46,0,0,0,6.62,15.16Z" fill="#fff"/><polygon points="153.6 110.27 170.99 145.56 209.91 151.19 181.75 178.63 188.41 217.4 153.6 199.1 118.78 217.4 125.43 178.63 97.28 151.19 136.19 145.56 153.6 110.27" fill="#4a4a4a"/><polygon points="358.41 110.27 375.81 145.56 414.72 151.19 386.57 178.63 393.22 217.4 358.41 199.1 323.61 217.4 330.25 178.63 302.08 151.19 341.02 145.56 358.41 110.27" fill="#4a4a4a"/></g></svg>