<svg id="Layer_1" data-name="Layer 1" xmlns="http://www.w3.org/2000/svg" viewBox="0 0 512 512"><title>shocked-2</title><g id="shocked-2"><path d="M512,256c0,141.38-114.62,256-256,256S0,397.38,0,256,114.62,0,256,0,512,114.62,512,256" fill="#ffd764"/><path d="M96,244.81a10.24,10.24,0,0,1-7.24-17.48L192.24,123.9a10.24,10.24,0,0,1,14.48,14.48L103.29,241.81a10.21,10.21,0,0,1-7.24,3Z" fill="#4a4a4a"/><path d="M199.48,244.82a10.21,10.21,0,0,1-7.24-3L88.81,138.38a10.24,10.24,0,0,1,14.48-14.48L206.72,227.34a10.24,10.24,0,0,1-7.24,17.48Z" fill="#4a4a4a"/><path d="M312.52,244.81a10.24,10.24,0,0,1-7.24-17.48L408.72,123.9a10.24,10.24,0,0,1,14.48,14.48L319.76,241.81a10.21,10.21,0,0,1-7.24,3Z" fill="#4a4a4a"/><path d="M416,244.82a10.21,10.21,0,0,1-7.24-3L305.28,138.38a10.24,10.24,0,0,1,14.48-14.48L423.2,227.34A10.24,10.24,0,0,1,416,244.82Z" fill="#4a4a4a"/><path d="M312.4,354.8H199.62a61,61,0,1,0,112.78,0Z" fill="#fa645a"/><path d="M312.38,354.8a57.77,57.77,0,0,0-3.76-7.56c-.2-.32-.4-.64-.58-1a61.92,61.92,0,0,0-10.34-12.76l-1-.92a62.1,62.1,0,0,0-6.3-5s0,0-.06,0a60.2,60.2,0,0,0-7-4c-.52-.26-1-.51-1.58-.76a61.61,61.61,0,0,0-7.34-2.93l-.2-.06a59.38,59.38,0,0,0-7.92-1.85c-.64-.11-1.3-.21-2-.3a54.79,54.79,0,0,0-16.7,0l-2,.3a59.38,59.38,0,0,0-7.92,1.85l-.2.06a63,63,0,0,0-7.34,2.93l-1.56.76a60.54,60.54,0,0,0-7,4s0,0-.06,0a59.67,59.67,0,0,0-6.28,5l-1,.92A60.64,60.64,0,0,0,204,346.28l-.6,1a63.42,63.42,0,0,0-3.76,7.56H312.38Z" fill="#fff"/></g></svg>