<svg id="Layer_1" data-name="Layer 1" xmlns="http://www.w3.org/2000/svg" viewBox="0 0 512 512"><title>relieved</title><g id="relieved"><path d="M495.09,267.37C495.09,402.48,385.57,512,250.46,512S5.84,402.48,5.84,267.37,115.36,22.75,250.46,22.75,495.09,132.27,495.09,267.37Z" fill="#ffd764"/><path d="M192.78,232.31a10.23,10.23,0,0,1-10.24-10.24,35.91,35.91,0,1,0-71.82,0,10.24,10.24,0,0,1-20.48,0,56.39,56.39,0,1,1,112.78,0,10.23,10.23,0,0,1-10.24,10.24Z" fill="#4a4a4a"/><path d="M400.45,232.31a10.23,10.23,0,0,1-10.24-10.24,35.91,35.91,0,1,0-71.81,0,10.24,10.24,0,1,1-20.48,0,56.39,56.39,0,1,1,112.77,0,10.23,10.23,0,0,1-10.24,10.24Z" fill="#4a4a4a"/><path d="M445.9,190c45.33,0,68-34.54,57.9-83.42C496.95,73.38,468.55,34.55,445.89,0,423.21,34.55,394.81,73.36,388,106.59,377.9,155.48,400.57,190,445.9,190Z" fill="#00b4dc"/><path d="M402.2,325.13H98.72c18.93,59.59,79.62,110.41,151.74,110.41,78.17,0,142.91-59.72,155.58-125.6A134.89,134.89,0,0,1,402.2,325.13Z" fill="#fa645a"/><path d="M406,309.94c.41-2.12.81-4.25,1.11-6.38.23-1.6.44-3.2.61-4.8.39-4,.69-8,.69-11.93h-316a119.22,119.22,0,0,0,.7,11.94c.16,1.58.36,3.17.59,4.75.31,2.2.72,4.38,1.14,6.56a139.77,139.77,0,0,0,3.61,14.37c.07.22.12.45.2.68H402.2A134.89,134.89,0,0,0,406,309.94Z" fill="#fff"/></g></svg>