<svg id="Layer_1" data-name="Layer 1" xmlns="http://www.w3.org/2000/svg" viewBox="0 0 512 512"><title>scared</title><g id="scared"><path d="M512,256c0,141.4-114.62,256-256,256S0,397.4,0,256,114.62,0,256,0,512,114.62,512,256" fill="#ffd764"/><path d="M256,292.58a134.1,134.1,0,0,0-134.1,134.1H390.1A134.1,134.1,0,0,0,256,292.58" fill="#ae453e"/><path d="M195.05,205.3a10.23,10.23,0,0,1-10.24-10.24,38.52,38.52,0,1,0-77,0,10.24,10.24,0,1,1-20.48,0,59,59,0,1,1,118,0,10.24,10.24,0,0,1-10.24,10.24Z" fill="#4a4a4a"/><path d="M414.48,205.3a10.23,10.23,0,0,1-10.24-10.24,38.53,38.53,0,1,0-77.06,0,10.24,10.24,0,1,1-20.48,0,59,59,0,1,1,118,0,10.23,10.23,0,0,1-10.24,10.24Z" fill="#4a4a4a"/><path d="M121.9,426.68c0-33.66,60-61,134.1-61s134.1,27.3,134.1,61" fill="#fa645a"/></g></svg>