<svg id="Layer_1" data-name="Layer 1" xmlns="http://www.w3.org/2000/svg" viewBox="0 0 512 512"><title>lovely-kiss</title><g id="lovely-kiss"><path d="M218.85,39.54C99.48,38.22,1.32,134.25,0,253.63s94.73,217.52,214.1,218.83,217.53-94.72,218.83-214.1S338.2,40.85,218.85,39.54Z" fill="#ffd764"/><path d="M166.81,212.09a9,9,0,0,1-9-9,30.75,30.75,0,1,0-61.49,0,9,9,0,0,1-18,0,48.73,48.73,0,1,1,97.45,0,9,9,0,0,1-9,9Z" fill="#4a4a4a"/><path d="M345.61,212.09a9,9,0,0,1-9-9,30.75,30.75,0,1,0-61.49,0,9,9,0,0,1-18,0,48.73,48.73,0,1,1,97.45,0,9,9,0,0,1-9,9Z" fill="#4a4a4a"/><path d="M255.17,397.81a9,9,0,0,1-5-16.46l31-20.66L250.2,340a9,9,0,0,1,0-15l31-20.68-31-20.66a9,9,0,0,1,10-15l42.21,28.13a9,9,0,0,1,0,15l-31,20.68,31,20.65a9,9,0,0,1,0,15l-42.21,28.14a9,9,0,0,1-5,1.51Z" fill="#4a4a4a"/><path d="M511.84,389.06c-1.34-14.49-11.94-26.66-26.67-26.66a26.68,26.68,0,0,0-24.42,16c-4.13-9.4-12.9-16-23.83-16-14.71,0-25.32,12.17-26.65,26.66,0,0-.71,3.59.86,10.07a44.39,44.39,0,0,0,14.05,22.65l35.57,31.15,36.16-31.15A44.42,44.42,0,0,0,511,399.13C512.55,392.65,511.84,389.06,511.84,389.06Z" fill="#fa645a"/><path d="M437.26,307.92c1.57-6.46.86-10.06.86-10.06-1.34-14.5-11.92-26.65-26.64-26.65a26.66,26.66,0,0,0-24.46,16c-4.11-9.43-12.89-16-23.81-16-14.73,0-25.33,12.15-26.65,26.65,0,0-.71,3.6.86,10.06a44.3,44.3,0,0,0,14.05,22.64L387,361.73l36.19-31.17A44.27,44.27,0,0,0,437.26,307.92Z" fill="#fa645a"/></g></svg>