<svg id="Layer_1" data-name="Layer 1"
    xmlns="http://www.w3.org/2000/svg" viewBox="0 0 512 512">
    <title>sad-face</title>
    <path d="M256,0C114.84,0,0,114.84,0,256S114.84,512,256,512,512,397.16,512,256,397.16,0,256,0Zm85.1,91c26.91,0,48.73,33.89,48.73,75.7s-21.82,75.7-48.73,75.7-48.73-33.89-48.73-75.7S314.19,91,341.1,91ZM170.9,91c26.92,0,48.73,33.89,48.73,75.7s-21.82,75.7-48.73,75.7-48.73-33.89-48.73-75.7S144,91,170.9,91ZM394.77,416a18.23,18.23,0,0,1-18,18.49H135.19a18.24,18.24,0,0,1-18-18.49c0-.25.07-.47.07-.72h-.07c0-.28.11-.53.15-.82a18.55,18.55,0,0,1,.69-3.76c11.29-66.07,68.66-116.4,137.93-116.4s126.65,50.33,137.95,116.39a19.94,19.94,0,0,1,.68,3.77c0,.28.12.55.15.81h-.07C394.71,415.49,394.77,415.71,394.77,416Z" fill="#ffa45e"/>
</svg>
