<svg id="Layer_1" data-name="Layer 1" xmlns="http://www.w3.org/2000/svg" viewBox="0 0 512 512"><title>star-eyes</title><path d="M256,0C114.84,0,0,114.84,0,256S114.84,512,256,512,512,397.16,512,256,397.16,0,256,0ZM150.39,145.17l20.5-41.53,20.5,41.53,45.83,6.66L204,184.16l7.84,45.64-41-21.55-41,21.55,7.84-45.64-33.17-32.32ZM394.76,332.41c0,.28-.1.54-.14.82a19.66,19.66,0,0,1-.69,3.79c-11.29,66-68.68,116.37-137.94,116.37S129.36,403.07,118.07,337a18.65,18.65,0,0,1-.7-3.79c0-.28-.11-.54-.15-.82h.07c0-.24-.07-.46-.07-.71a18.24,18.24,0,0,1,18-18.49H376.81a18.22,18.22,0,0,1,18,18.51c0,.25-.07.48-.07.71h.07ZM375.48,184.16l7.83,45.64-41-21.55-41,21.55,7.84-45.64L276,151.83l45.83-6.66,20.5-41.53,20.48,41.53,45.83,6.66Z" fill="#ffa45e"/></svg>
