<svg id="Layer_1" data-name="Layer 1" xmlns="http://www.w3.org/2000/svg" viewBox="0 0 512 512"><title>sad</title><path d="M256,0C114.84,0,0,114.85,0,256S114.84,512,256,512,512,397.15,512,256,397.15,0,256,0Zm85.1,91c26.9,0,48.73,33.89,48.73,75.69S368,242.42,341.1,242.42s-48.73-33.89-48.73-75.69S314.18,91,341.1,91ZM170.9,91c26.92,0,48.73,33.89,48.73,75.69s-21.82,75.69-48.73,75.69-48.73-33.89-48.73-75.69S144,91,170.9,91ZM398.87,422a18.9,18.9,0,0,1-26-6.23c-24.14-39.35-68.59-63.8-116-63.8-48.63,0-93.65,25.41-117.48,66.3a18.93,18.93,0,0,1-32.7-19.07c30.59-52.48,88.13-85.09,150.18-85.09,60.47,0,117.27,31.38,148.25,81.86A18.91,18.91,0,0,1,398.87,422Z" fill="#fff"/></svg>
