<svg id="Layer_1" data-name="Layer 1" xmlns="http://www.w3.org/2000/svg" viewBox="0 0 512 512"><title>wink</title><path d="M256,0C114.83,0,0,114.84,0,256S114.84,512,256,512,512,397.16,512,256,397.16,0,256,0Zm85.1,91c26.91,0,48.73,33.89,48.73,75.69S368,242.42,341.1,242.42s-48.73-33.89-48.73-75.69S314.19,91,341.1,91ZM170.89,147.81c26.92,0,48.73,8.47,48.73,18.92s-21.82,18.92-48.73,18.92-48.73-8.47-48.73-18.92S144,147.81,170.89,147.81Zm234.21,198c-31,50.49-87.79,81.85-148.25,81.85-62,0-119.59-32.6-150.18-85.09a18.92,18.92,0,0,1,32.7-19.06c23.83,40.9,68.85,66.3,117.49,66.3,47.41,0,91.85-24.45,116-63.8a18.92,18.92,0,1,1,32.24,19.81Z" fill="#ffa45e"/></svg>
