<svg id="Layer_1" data-name="Layer 1" xmlns="http://www.w3.org/2000/svg" viewBox="0 0 512 512"><title>big-smile</title><path d="M256,0C114.83,0,0,114.84,0,256S114.84,512,256,512,512,397.16,512,256,397.17,0,256,0Zm85.3,90.85c26.91,0,48.73,33.89,48.73,75.69s-21.82,75.69-48.73,75.69-48.72-33.89-48.72-75.69S314.38,90.85,341.3,90.85Zm-170.21,0c26.91,0,48.73,33.89,48.73,75.69S198,242.24,171.09,242.24s-48.73-33.89-48.73-75.69S144.18,90.85,171.09,90.85ZM405.3,345.62c-31,50.48-87.79,81.85-148.25,81.85-62,0-119.59-32.6-150.18-85.08a18.92,18.92,0,0,1,32.7-19.07c23.84,40.91,68.86,66.3,117.49,66.3,47.4,0,91.84-24.45,116-63.8a18.93,18.93,0,0,1,32.26,19.81Z" fill="#fff"/></svg>
