<svg id="Layer_1" data-name="Layer 1" xmlns="http://www.w3.org/2000/svg" viewBox="0 0 512 512"><title>shocked-2</title><path d="M256,0C114.84,0,0,114.85,0,256S114.84,512,256,512,512,397.16,512,256,397.16,0,256,0Zm-85.1,242.42c-26.91,0-48.73-33.89-48.73-75.69S144,91,170.89,91s48.73,33.89,48.73,75.69S197.8,242.42,170.89,242.42Zm86.58,189.87a56.77,56.77,0,1,1,56.77-56.77A56.77,56.77,0,0,1,257.47,432.29ZM341.1,242.42c-26.92,0-48.75-33.89-48.75-75.69S314.18,91,341.1,91s48.74,33.89,48.74,75.69S368,242.42,341.1,242.42Z" fill="#fff"/></svg>
