<svg id="Layer_1" data-name="Layer 1" xmlns="http://www.w3.org/2000/svg" viewBox="0 0 512 512"><title>grimming-smile</title><path d="M256,0C114.84,0,0,114.84,0,256S114.84,512,256,512,512,397.16,512,256,397.16,0,256,0Zm85.1,166.72c26.91,0,48.73,8.47,48.73,18.92S368,204.57,341.1,204.57s-48.73-8.47-48.73-18.92S314.19,166.72,341.1,166.72Zm-170.21,0c26.92,0,48.73,8.47,48.73,18.92s-21.82,18.92-48.73,18.92-48.73-8.47-48.73-18.92S144,166.72,170.89,166.72ZM405.11,345.81c-31,50.48-87.79,81.85-148.25,81.85-62,0-119.59-32.6-150.18-85.08a18.92,18.92,0,0,1,32.7-19.06c23.84,40.89,68.86,66.3,117.49,66.3,47.39,0,91.83-24.46,116-63.8a18.92,18.92,0,1,1,32.25,19.81Z" fill="#ffa45e"/></svg>
