<svg id="Layer_1" data-name="Layer 1" xmlns="http://www.w3.org/2000/svg" viewBox="0 0 512 512"><title>disappointed</title><path d="M256,0C114.83,0,0,114.84,0,256S114.84,512,256,512,512,397.16,512,256,397.16,0,256,0ZM122.16,166.72C122.16,124.92,144,91,170.89,91s48.73,33.89,48.73,75.69-21.82,75.69-48.73,75.69S122.16,208.53,122.16,166.72Zm230,190-181.9,52.15a18.93,18.93,0,0,1-10.43-36.39l181.9-52.14a18.92,18.92,0,0,1,10.43,36.38ZM341.1,242.42c-26.92,0-48.75-33.89-48.75-75.69S314.18,91,341.1,91s48.74,33.89,48.74,75.69S368,242.42,341.1,242.42Z" fill="#fff"/></svg>
