<svg id="Layer_1" data-name="Layer 1" xmlns="http://www.w3.org/2000/svg" viewBox="0 0 512 512"><title>heart-eyes</title><path d="M256,0C114.84,0,0,114.85,0,256S114.84,512,256,512,512,397.16,512,256,397.16,0,256,0Zm33.69,139.46a36.35,36.35,0,0,1,51.4.14,36.35,36.35,0,0,1,51.41-.14c14.24,14.15,14.56,37-1.08,52.63-17.49,17.47-45.44,45.43-50.33,50.33L290.77,192.1C275.13,176.44,275.46,153.62,289.69,139.46Zm-170.2,0a36.36,36.36,0,0,1,51.41.14,36.35,36.35,0,0,1,51.4-.14c14.23,14.15,14.57,37-1.08,52.63-17.48,17.47-45.43,45.43-50.32,50.33L120.57,192.1C104.92,176.44,105.25,153.62,119.49,139.46ZM405.11,345.81c-31,50.48-87.79,81.85-148.25,81.85-62,0-119.59-32.6-150.18-85.08a18.92,18.92,0,0,1,32.7-19.06c23.83,40.89,68.85,66.3,117.49,66.3,47.4,0,91.84-24.46,116-63.8a18.92,18.92,0,1,1,32.25,19.81Z" fill="#fff"/></svg>
