<?xml version="1.0" encoding="UTF-8" standalone="no"?>
<!DOCTYPE svg PUBLIC "-//W3C//DTD SVG 1.1//EN" "http://www.w3.org/Graphics/SVG/1.1/DTD/svg11.dtd">
<svg version="1.1" xmlns="http://www.w3.org/2000/svg" xmlns:xlink="http://www.w3.org/1999/xlink" preserveAspectRatio="xMidYMid meet" viewBox="0 0 640 640" width="640" height="640"><defs><path d="M325.66 107.6L326.66 107.74L327.65 107.92L328.62 108.14L329.58 108.4L330.53 108.69L331.46 109.02L332.37 109.39L333.26 109.78L334.14 110.22L334.99 110.68L335.82 111.18L336.64 111.7L337.43 112.26L338.2 112.85L338.94 113.46L339.66 114.1L340.36 114.77L341.03 115.47L341.67 116.19L342.28 116.93L342.87 117.7L343.43 118.49L343.95 119.31L344.45 120.14L344.92 121L345.35 121.87L345.75 122.76L346.11 123.68L346.44 124.6L346.73 125.55L346.99 126.51L347.21 127.48L347.39 128.47L347.53 129.47L347.64 130.49L347.7 131.51L347.72 132.55L347.72 363.39L356.03 362.88L365.76 361.95L375.37 360.71L384.85 359.16L394.2 357.31L403.41 355.16L412.46 352.72L421.35 349.99L430.07 346.98L438.61 343.69L446.96 340.13L455.11 336.3L463.06 332.22L470.78 327.88L478.29 323.28L485.56 318.45L492.58 313.37L499.36 308.06L505.87 302.52L512.11 296.76L518.07 290.78L523.74 284.59L529.12 278.19L534.19 271.58L538.94 264.78L543.37 257.79L547.46 250.61L551.21 243.25L554.61 235.72L557.65 228.01L560.31 220.14L562.6 212.11L564.5 203.93L566 195.6L567.09 187.2L567.75 178.82L567.86 175.32L568.59 178.89L569.93 187.37L570.87 195.91L571.41 204.51L571.54 213.15L571.26 221.84L570.55 230.56L569.42 239.31L567.86 247.99L565.89 256.52L563.54 264.88L560.8 273.09L557.69 281.12L554.21 288.98L550.37 296.65L546.19 304.14L541.66 311.44L536.81 318.53L531.64 325.43L526.16 332.11L520.38 338.58L514.3 344.83L507.94 350.86L501.31 356.65L494.42 362.2L487.27 367.52L479.87 372.58L472.23 377.39L464.37 381.94L456.29 386.23L448 390.24L439.51 393.98L430.83 397.44L421.97 400.61L412.94 403.49L403.74 406.07L394.39 408.35L384.89 410.31L375.26 411.96L365.5 413.29L355.63 414.3L347.72 414.83L347.72 616.65L347.7 617.68L347.64 618.71L347.53 619.72L347.39 620.72L347.21 621.71L346.99 622.69L346.73 623.65L346.44 624.59L346.11 625.52L345.75 626.43L345.35 627.33L344.92 628.2L344.45 629.05L343.95 629.89L343.43 630.7L342.87 631.49L342.28 632.26L341.67 633.01L341.03 633.73L340.36 634.42L339.66 635.09L338.94 635.73L338.2 636.35L337.43 636.94L336.64 637.49L335.82 638.02L334.99 638.52L334.14 638.98L333.26 639.41L332.37 639.81L331.46 640.17L330.53 640.5L329.58 640.8L328.62 641.06L327.65 641.27L326.66 641.46L325.66 641.6L324.64 641.7L323.62 641.76L322.58 641.79L321.55 641.76L320.52 641.7L319.51 641.6L318.5 641.46L317.52 641.27L316.54 641.06L315.58 640.8L314.64 640.5L313.71 640.17L312.8 639.81L311.9 639.41L311.03 638.98L310.18 638.52L309.34 638.02L308.53 637.49L307.74 636.94L306.97 636.35L306.22 635.73L305.5 635.09L304.81 634.42L304.14 633.73L303.5 633.01L302.88 632.26L302.29 631.49L301.74 630.7L301.21 629.89L300.71 629.05L300.25 628.2L299.82 627.33L299.42 626.43L299.05 625.52L298.73 624.59L298.43 623.65L298.17 622.69L297.95 621.71L297.77 620.72L297.63 619.72L297.53 618.71L297.46 617.68L297.44 616.65L297.44 413.48L294.44 413.17L284 411.73L273.62 409.95L263.4 407.83L253.34 405.38L243.46 402.63L233.77 399.56L224.26 396.19L214.95 392.53L205.84 388.59L196.94 384.37L188.26 379.89L179.8 375.14L171.57 370.15L163.58 364.91L155.84 359.44L148.35 353.74L141.12 347.82L134.16 341.69L127.47 335.35L121.07 328.83L114.95 322.11L109.12 315.22L103.6 308.16L98.39 300.93L93.5 293.55L88.93 286.03L84.68 278.36L80.78 270.57L77.23 262.66L74.02 254.63L71.17 246.49L68.7 238.26L66.59 229.94L64.86 221.54L63.53 213.06L62.58 204.52L62.04 195.92L61.91 187.27L62.19 178.59L62.9 169.86L64.04 161.12L65.6 152.44L65.88 151.21L65.89 151.93L66.46 160.2L67.42 168.41L68.77 176.55L70.51 184.63L72.61 192.64L75.09 200.55L77.92 208.38L81.11 216.11L84.65 223.72L88.53 231.23L92.73 238.61L97.27 245.85L102.12 252.96L107.28 259.92L112.75 266.73L118.52 273.38L124.57 279.85L130.91 286.15L137.52 292.26L144.41 298.17L151.56 303.89L158.96 309.39L166.61 314.68L174.5 319.75L182.62 324.58L190.98 329.17L199.55 333.51L208.33 337.6L217.32 341.42L226.52 344.97L235.9 348.24L245.46 351.23L255.21 353.92L265.13 356.3L275.21 358.38L285.44 360.14L295.73 361.55L297.44 361.73L297.44 132.55L297.46 131.51L297.53 130.49L297.63 129.47L297.77 128.47L297.95 127.48L298.17 126.51L298.43 125.55L298.73 124.6L299.05 123.68L299.42 122.76L299.82 121.87L300.25 121L300.71 120.14L301.21 119.31L301.74 118.49L302.29 117.7L302.88 116.93L303.5 116.19L304.14 115.47L304.81 114.77L305.5 114.1L306.22 113.46L306.97 112.85L307.74 112.26L308.53 111.7L309.34 111.18L310.18 110.68L311.03 110.22L311.9 109.78L312.8 109.39L313.71 109.02L314.64 108.69L315.58 108.4L316.54 108.14L317.52 107.92L318.5 107.74L319.51 107.6L320.52 107.49L321.55 107.43L322.58 107.41L323.62 107.43L324.64 107.49L324.64 107.49L325.66 107.6Z" id="aJE10fi5"></path><path d="M371.37 8.11L380.01 9.08L388.54 10.31L396.95 11.79L405.23 13.53L413.38 15.51L421.39 17.74L429.25 20.2L436.95 22.89L444.5 25.8L451.87 28.94L459.07 32.29L466.09 35.85L472.92 39.61L479.55 43.57L485.98 47.72L492.2 52.05L498.2 56.57L503.97 61.27L509.52 66.13L514.82 71.16L519.88 76.34L524.69 81.69L529.24 87.17L533.52 92.81L537.53 98.58L541.26 104.48L544.7 110.5L547.85 116.65L550.69 122.91L553.23 129.29L555.45 135.77L557.35 142.34L558.92 149.01L560.15 155.77L561.04 162.61L561.58 169.53L561.76 176.52L561.58 183.51L561.04 190.42L560.15 197.26L558.92 204.02L557.35 210.69L555.45 217.27L553.23 223.74L550.69 230.12L547.85 236.38L544.7 242.53L543.33 244.94L543.69 242.6L544.32 235.92L544.53 229.17L544.32 222.42L543.69 215.74L542.66 209.14L541.23 202.61L539.4 196.17L537.2 189.82L534.62 183.57L531.67 177.42L528.36 171.37L524.7 165.43L520.7 159.61L516.37 153.92L511.71 148.35L506.74 142.91L501.45 137.61L495.86 132.45L489.98 127.44L483.81 122.59L477.37 117.89L470.65 113.36L463.68 109L456.45 104.81L448.98 100.8L441.27 96.98L433.34 93.35L425.18 89.92L416.81 86.68L408.24 83.66L399.47 80.84L390.51 78.24L381.38 75.86L372.07 73.72L362.6 71.8L352.97 70.12L343.2 68.69L333.29 67.51L323.25 66.57L313.08 65.9L302.81 65.5L292.42 65.36L282.04 65.5L271.76 65.9L261.59 66.57L251.55 67.51L241.64 68.69L231.87 70.12L222.24 71.8L212.77 73.72L203.46 75.86L194.33 78.24L185.37 80.84L176.6 83.66L168.03 86.68L159.66 89.92L157.76 90.72L160.46 87.17L165 81.69L169.81 76.34L174.87 71.16L180.18 66.13L185.72 61.27L191.5 56.57L197.5 52.05L203.72 47.72L210.15 43.57L216.78 39.61L223.61 35.85L230.62 32.29L237.82 28.94L245.2 25.8L252.74 22.89L260.45 20.2L268.31 17.74L276.32 15.51L284.47 13.53L292.75 11.79L301.16 10.31L309.68 9.08L318.32 8.11L327.07 7.42L335.91 7L344.85 6.86L353.78 7L362.63 7.42L362.63 7.42L371.37 8.11Z" id="drVQgkxNH"></path></defs><g><g><g><use xlink:href="#aJE10fi5" opacity="1" fill="#7573d9" fill-opacity="1"></use></g><g><use xlink:href="#drVQgkxNH" opacity="1" fill="#aa87de" fill-opacity="1"></use></g></g></g></svg>